<?xml version="1.0" encoding="UTF-8"?>
<svg id="Layer_3" xmlns="http://www.w3.org/2000/svg" version="1.1" viewBox="0 0 1000 1000">
  <!-- Generator: Adobe Illustrator 29.3.1, SVG Export Plug-In . SVG Version: 2.1.0 Build 151)  -->
  <defs>
    <style>
      .st0 {
        fill: #3d3034;
      }

      .st1, .st2, .st3, .st4, .st5, .st6 {
        stroke-miterlimit: 10;
      }

      .st1, .st2, .st6 {
        stroke-width: 7px;
      }

      .st1, .st3, .st4, .st5, .st6 {
        stroke: #000;
      }

      .st1, .st7 {
        fill: #fff4ea;
      }

      .st2 {
        stroke: #c4af9d;
      }

      .st2, .st3 {
        stroke-linecap: round;
      }

      .st2, .st3, .st5, .st6 {
        fill: none;
      }

      .st3, .st4, .st5 {
        stroke-width: 6px;
      }

      .st8 {
        fill: #fff;
      }

      .st9 {
        fill: #917a6a;
      }

      .st10 {
        fill: #eddcd1;
      }

      .st11 {
        fill: #f4cfc3;
      }

      .st4 {
        fill: #652c25;
      }

      .st12 {
        fill: #5e4a53;
      }

      .st13 {
        fill: #c4af9d;
      }
    </style>
  </defs>
  <rect class="st8" width="1000" height="1000"/>
  <polygon class="st9" points="295.5 399.7 212.2 461 787.8 461 704.5 399.7 295.5 399.7"/>
  <line class="st6" x1="704.5" y1="399.7" x2="704.5" y2="461"/>
  <path class="st0" d="M662.2,529.4c13.9-99.2,12.3-265.8-107.4-282.5s-193.5,62.9-180.4,231.8"/>
  <path class="st7" d="M448.4,304c-24.1,35.2-34.3,72.9-24,119.2-33.3,5.1-42.2,46.7,4.8,53.3,90.3,12.6,151.4-1.1,181-13.6,9.6-68.7,7.9-100.9-12.7-128.2"/>
  <path d="M428.9,398.6c3.1-13.4,16.2-22.4,29.4-24.2,10-1.2,20.8.6,29.2,6.3,2.9,1.9,5.5,4.3,7.6,7,1,1.3.8,3.2-.5,4.2s-3.1.8-4.1-.4c-3.8-4.3-8.7-7.3-14.2-9-18.9-5.8-34.6.9-45.8,16.8-.5.8-1.9.2-1.6-.7h0Z"/>
  <ellipse class="st11" cx="432.8" cy="450.8" rx="19.3" ry="28.5" transform="translate(-41.5 857.8) rotate(-86.8)"/>
  <ellipse class="st11" cx="584.5" cy="451.4" rx="28.5" ry="19.3" transform="translate(-30.1 41.9) rotate(-4)"/>
  <path class="st4" d="M580.2,417.1c-.9-23.4-38.8-26.7-40.9-2.5-4,24.5,43,27.7,40.9,2.5Z"/>
  <path class="st4" d="M481.4,406.3c-1-.7-2.3-1.6-3.4-2.2-.6-.3-5.2-1.8-7.2-1.6h-2.2c-3.8.2-7.7,1.3-10.9,3.2-6.7,4-10.8,11.5-8.9,19.4,2,8.7,10.8,12.5,19.1,12.8,5.6.2,11.8-1.6,15.8-5.7,2.2-2.3,3.5-4.9,4.1-8,1.2-6.4-1-14.1-6.3-18h-.1Z"/>
  <path d="M532.3,267.1c11.5-7.4,26.5-1.4,35.1,7.8,2.9,3.1,5.3,6.5,7,10.3-14.9-11.6-23.1-16-42.1-18.1h0Z"/>
  <path class="st0" d="M611.6,363.2c-17.7-5.3-34.6-27.1-44.2-51.2l1.8,4.7c5.8,13-3,46.2-21.8,59.7,3.2-7,4.7-15,5.1-19.3-6.1,8.2-16.1,15-29.1,17.3,5-9.9,15.2-28.6,5.4-46.2-.7,12.1-5.9,31.9-19.1,47.2-23.2-12.5-28.2-42.6-27.7-61.6-9.4,25.5,3.1,64.8,12.8,77.1-11.5-4.9-19.4-13.2-24.4-26.6-.6,8.9,1.1,17.3,4.2,26.5-23.8-23.2-22.8-52.7-14.8-81.1l-2.8,11.3c-3.1,18.3-18,43.4-36.8,58.4l-5.7-48.4,40.2-41.2,131.6,5.3,25.4,68.1h-.1Z"/>
  <path class="st12" d="M457,321l.4-1.4c.7-3.3,1.5-6.6,2.5-9.8l-2.5,9.8c-1.1,4.9-1.8,9.7-2.3,14.5,7.9,2.4,15.8,4.3,23.8,5.7-.5-9.2.3-18.2,3.2-26-.2,7.8.5,17.4,3,27,13.9,2.1,27.8,2.7,41.3,2.2,1.5-5.6,2.3-10.7,2.5-14.9,2.7,4.8,3.8,9.8,4,14.6,12.8-.8,25.2-2.6,37-5.2,1.7-8.4,1.5-16.1-.6-20.9l-1.8-4.7c3.3,8.2,7.4,16.2,12.1,23.3,25.1-6.5,46.5-16.1,61.3-26.2l-11.3-18c-71.2,26.5-146.9,23.9-212.6-.7l-13.1,19.3c15.9,10.8,32.6,18.5,49.5,23.9,1.7-4.4,2.9-8.7,3.6-12.6h0Z"/>
  <path d="M504.1,269.7c-7.6.6-14.6,1.4-21.4,4.6-3.3,1.5-6.4,3.5-9.5,5.6s-6.2,4.4-9.5,6.5c7-14.1,25.5-27.6,40.5-16.7h-.1Z"/>
  <path d="M567.4,312c5.2,4.9,7.9,10.4,11.3,16,2.7,4.1,5.5,8.2,8.6,12,6.8,8.4,15.1,16.3,25.1,20.3l-1.7,5.7c-18-4.9-30.3-21.1-38.6-36.8-2.8-5.2-5.1-10.8-4.8-17.2h.1Z"/>
  <path d="M459.8,309.8c-.2,14-3.2,28.7-1.2,42.6,1.5,13.9,7.9,26.8,18,36.5l-4.8,3c-2.9-8.8-5-18.2-4.3-27.6l.9-13.6c3.4,8.8,6.8,20.9,13.5,27.8,3.8,4.3,8.7,7.6,14.1,9.9l-3.4,4.5c-4.3-5.8-7-12.1-9.5-18.7-6.6-19.3-10.6-41.4-3.8-61.2l6.1-16.6-.5,17.7c-.3,16.8,3,34.8,13.6,48.3,3.5,4.3,7.7,8,12.6,10.6l-3.6.7c5.4-6.3,9.6-13.6,12.7-21.3,3.1-7.7,5.2-16,5.7-24.2l.6-10.1,4.8,8.8c9,15.9,2.7,34.2-5.4,49l-3.1-4.2c10.6-1.9,20.8-7.5,27.2-16.2l6.3-8.4-1,10.4c-.8,7.1-2.5,13.7-5.3,20.2l-4.4-3.6c14.7-11.7,23.3-34.3,22.6-52.9,0-1.3,0-2.6-.2-3.9l2.4-1.1c2,2.5,2.9,5.6,3.2,8.5,1.3,19-8.6,43.1-24.5,54l-8.5,5.7c2.3-5.3,6.1-12.7,7.3-18.3.8-3.1,1.4-6.3,1.7-9.4l5.2,2c-7.4,9.9-18.8,16.3-30.9,18.4l-5.8,1,2.7-5.2c7.1-13.1,13.4-29.5,5.5-43.5l5.5-1.3c-1.3,17.9-8.3,35.2-19.9,49l-1.5,1.8-2.1-1.1c-22.6-12.3-29.7-40.2-29.2-64.2l5.6,1.1c-7.1,20.3-1.3,47.1,7.5,66.2,2.3,5.5,8,12.2,11.5,16.9l-10.1-4.3c-6.1-2.5-11.7-6.4-16.1-11.3-4.5-5-7.6-10.9-9.8-16.9l5.6-.8c-1.1,12.3,4,25.2,7.8,36.7l-8.6-8.4c-5.4-5.3-10-11.4-13.6-18.1-10.4-19.6-10.2-45.9.8-65.1h0v.2Z"/>
  <path d="M418.3,377.1c13.3-10.7,23.9-24.9,31.1-40.3,2.4-5.2,4.3-10.6,5.7-16l3.9.7c-.7,6.1-2.6,11.9-4.9,17.4-7.2,16.5-18,31.6-32,43l-3.7-4.7h-.1Z"/>
  <path d="M600.8,399.3c-7.5-10.8-19.3-19.3-32.8-18.9-10,.1-20.4,3.3-27.2,11.1-2.6,2.8-6.9-.8-4.6-3.8,12.7-16.1,39.6-18.1,55.4-5.5,2.7,2.1,5,4.6,6.9,7.3,1.9,2.8,3.3,5.8,4,9.1,0,.5-.2,1-.7,1.1-.4,0-.7,0-.9-.4h-.1Z"/>
  <line class="st6" x1="295.5" y1="399.7" x2="295.5" y2="461"/>
  <path d="M448.4,304c-4,9.6-8.7,18.9-12.7,28.5-8.1,18.8-12.1,39.2-11.7,59.6.2,11.2,1.6,22.4,3.7,33.5-3.4.5-7.2,1.1-10.4,2.4-7.1,2.7-13.7,8.1-16.4,15.3-4,10.3,1.5,20,10.8,24.9,7,4,15.3,5.3,23.4,6.2,5,.6,11.8,1.5,16.7,1.9,39,3.8,78.8,3.5,117.3-4.2,13.6-2.7,27.2-6.5,40-11.8l-1.7,2.2c2.4-21.6,5.3-43.8,5.3-65.5s-.4-13.6-1.1-20.3c-.9-6.6-2.3-13.3-4.4-19.6-.5-1.2-1.7-4.5-2.1-5.6-.6-1.4-1.8-4.2-2.4-5.6-1.7-3.8-3.5-7.5-5.1-11.3,9.8,8.3,15,20.7,18,33,1.8,7.5,2.7,15.3,3.2,23,1.1,24.9-2.1,49.7-5.9,74.2-16.4,6.9-33.6,11.3-51,14.3-33.6,5.8-68.1,6.2-102.1,3.5-7.9-.7-17.6-1.6-25.4-2.7-5.7-.6-11.6-1.5-17.1-3.3-11.9-3.7-23-12.6-23.2-26-.2-16.3,15-28.1,30.1-30.1l-2.3,3.4c-8.3-31-5.6-65,8.5-93.8,4.7-9.5,10.6-18.5,18.2-26h-.2Z"/>
  <rect class="st13" x="212.2" y="461" width="575.7" height="294.3"/>
  <polyline class="st6" points="668.1 399.7 704.5 399.7 787.8 461 787.8 755.3 212.2 755.3 212.2 461 295.5 399.7 373.4 399.7"/>
  <line class="st6" x1="212.2" y1="461" x2="787.8" y2="461"/>
  <rect class="st10" x="632.7" y="656.3" width="122.7" height="65.4" rx="8.2" ry="8.2"/>
  <g>
    <line class="st2" x1="653.4" y1="705.3" x2="735.2" y2="705.3"/>
    <line class="st2" x1="653.4" y1="689" x2="735.2" y2="689"/>
    <line class="st2" x1="653.4" y1="672.6" x2="735.2" y2="672.6"/>
  </g>
  <path class="st1" d="M313.1,461c0,14.8,11.3,16.6,28.5,19.1,22.8,3.2,31.6.8,31.6-19.1,0-36.1-60.2-23.9-60.2,0h.1Z"/>
  <line class="st3" x1="356.8" y1="458.1" x2="356.8" y2="481.2"/>
  <line class="st3" x1="342.8" y1="457.9" x2="342.8" y2="478.6"/>
  <line class="st3" x1="329" y1="457.9" x2="329" y2="477.3"/>
  <path class="st1" d="M728.2,461c0,14.8-11.3,16.6-28.5,19.1s-31.6.8-31.6-19.1c0-36.1,60.2-23.9,60.2,0h-.1Z"/>
  <line class="st3" x1="684.5" y1="458.1" x2="684.5" y2="481.2"/>
  <line class="st3" x1="698.5" y1="457.9" x2="698.5" y2="478.6"/>
  <line class="st3" x1="712.3" y1="457.9" x2="712.3" y2="477.3"/>
  <path class="st5" d="M667.9,461c2.4-93.4-18.2-200.8-113.2-214.1-115.5-16.1-188.2,57.3-181.5,214.1"/>
</svg>