<svg width="542" height="543" viewBox="0 0 542 543" fill="none" xmlns="http://www.w3.org/2000/svg">
<g clip-path="url(#clip0_267_3438)">
<path d="M541.522 0H0V542.512H541.522V0Z" fill="white"/>
<path d="M484.793 380.029C484.793 250.359 453.003 42.1193 296.432 42.1193C139.862 42.1193 73.6825 147.579 104.063 353.049L154.393 422.699L484.793 380.029Z" fill="#3D3034"/>
<path d="M415.703 349.169C374.693 351.849 317.263 397.389 288.333 417.049C286.543 417.159 285.123 417.249 283.333 417.369C267.863 409.489 238.883 398.369 223.083 380.039C201.353 383.849 183.793 392.299 170.123 410.789C165.743 402.819 145.963 380.159 133.053 387.869L115.653 368.899C110.133 404.229 68.3027 412.479 48.5327 407.389L61.1327 429.159C57.4727 433.359 55.4327 438.949 55.4327 444.909C55.4327 452.509 58.7727 460.719 66.3727 467.419C73.9427 474.089 117.413 514.169 129.893 534.299H540.833V462.559C522.843 423.889 467.383 354.499 415.713 349.169H415.703Z" fill="white"/>
<path d="M115.653 368.899C110.133 404.229 68.3128 412.479 48.5328 407.389C46.7628 407.899 44.8128 408.179 42.6628 408.179C28.6728 408.179 20.1328 396.419 20.1328 384.769C20.1328 378.339 22.7428 371.929 28.4728 367.559C25.9728 363.539 24.5328 358.789 24.5328 353.689C24.5328 340.619 34.0528 329.789 46.5328 327.709C47.0128 322.089 49.3028 315.449 56.4728 315.449C64.7228 315.449 83.2728 325.779 110.133 360.699C112.153 363.129 114.023 365.859 115.653 368.889V368.899Z" fill="#FFEDE3"/>
<path d="M48.5326 386.199C32.0726 386.199 18.6826 372.809 18.6826 356.349C18.6826 339.889 32.0726 326.499 48.5326 326.499C64.9926 326.499 78.3826 339.889 78.3826 356.349C78.3826 372.809 64.9926 386.199 48.5326 386.199ZM48.5326 333.509C35.9426 333.509 25.7026 343.749 25.7026 356.339C25.7026 368.929 35.9426 379.169 48.5326 379.169C61.1226 379.169 71.3626 368.929 71.3626 356.339C71.3626 343.749 61.1226 333.509 48.5326 333.509Z" fill="black"/>
<path d="M126.663 126.969C133.103 132.169 144.413 136.939 144.413 136.939C144.413 136.939 131.383 151.529 124.753 169.869C124.753 169.869 115.473 171.969 109.023 169.339C108.953 164.079 119.623 137.369 126.663 126.969Z" fill="#5E4A53"/>
<path d="M227.382 357.659C224.212 359.219 218.582 368.579 223.082 380.029C239.792 399.419 272.572 414.269 289.182 419.829C319.212 386.589 373.502 351.919 415.702 349.169C420.902 334.639 415.702 315.629 406.372 309.709" fill="#3B3A3F"/>
<path d="M279.682 418.609C271.532 397.799 267.562 376.149 267.562 352.399H285.122C285.122 373.909 288.693 393.469 296.033 412.199L279.682 418.609Z" fill="#E5E5E5"/>
<path d="M283.932 416.939C283.122 414.859 283.303 412.679 283.463 410.749C283.583 409.359 283.693 408.049 283.403 407.179C283.123 406.319 282.263 405.339 281.353 404.299C280.073 402.839 278.623 401.179 278.033 399.009C277.463 396.869 277.883 394.719 278.263 392.829C278.533 391.459 278.793 390.159 278.603 389.249C278.423 388.379 277.683 387.309 276.893 386.179C275.783 384.579 274.522 382.769 274.182 380.529C273.852 378.349 274.513 376.279 275.083 374.449C275.503 373.109 275.902 371.839 275.812 370.899C275.722 370.019 275.103 368.889 274.443 367.679C273.503 365.969 272.443 364.039 272.343 361.779C272.243 359.599 273.093 357.619 273.853 355.869C274.413 354.569 274.943 353.339 274.943 352.379H280.562C280.562 354.489 279.743 356.399 279.013 358.089C278.453 359.399 277.923 360.639 277.963 361.519C278.003 362.479 278.673 363.699 279.383 364.989C280.243 366.559 281.213 368.339 281.413 370.359C281.613 372.449 280.993 374.409 280.443 376.149C280.013 377.519 279.603 378.809 279.733 379.689C279.873 380.629 280.662 381.769 281.502 382.969C282.522 384.439 283.683 386.099 284.093 388.099C284.513 390.129 284.113 392.149 283.763 393.919C283.483 395.329 283.213 396.669 283.453 397.549C283.693 398.459 284.602 399.489 285.562 400.589C286.742 401.939 288.093 403.469 288.733 405.409C289.383 407.369 289.212 409.409 289.062 411.209C288.942 412.649 288.833 414.019 289.163 414.879L283.932 416.929V416.939Z" fill="black"/>
<path d="M278.443 543.429L278.093 534.659C275.623 473.219 274.623 437.049 276.413 421.859L277.443 413.139L294.883 415.199L293.853 423.919C292.203 437.879 293.253 474.839 295.633 533.959L295.983 542.729L278.433 543.439L278.443 543.429Z" fill="black"/>
<path d="M284.173 537.219L284.063 534.409C281.603 473.279 280.603 437.339 282.353 422.549L282.683 419.759L288.263 420.419L287.933 423.209C286.233 437.559 287.293 474.769 289.683 534.189L289.793 536.999L284.173 537.229V537.219Z" fill="white"/>
<path d="M368.863 145.069C403.293 188.649 406.163 238.569 406.163 308.989C350.923 339.479 245.113 358.849 172.053 358.849C153.523 358.849 134.193 351.439 130.683 334.369C128.023 321.429 129.103 302.659 160.903 291.419C137.583 217.169 154.353 166.239 170.133 133.589L339.793 105.969L368.843 145.069H368.863Z" fill="#FFF4EA"/>
<path d="M388.623 179.689C350.243 171.079 327.643 130.009 317.243 110.279C339.303 151.169 320.833 188.299 313.123 196.729C314.493 189.969 314.203 184.529 313.123 182.019C307.923 195.289 286.343 207.009 279.523 209.459C281.793 201.989 288.253 171.259 279.403 156.189C281.433 176.759 270.673 203.419 262.183 214.419C234.083 203.299 220.933 184.409 216.863 155.349C213.513 183.209 229.773 219.919 238.143 232.829C230.733 231.629 219.853 227.689 211.003 213.819C210.643 221.949 211.963 226.139 216.863 239.289C181.113 218.429 182.543 158.519 186.493 130.719C176.573 178.549 166.163 210.109 149.723 233.489L136.093 164.259L201.863 85.7092H354.543L388.623 179.689Z" fill="#3D3034"/>
<path d="M50.8722 380.029C65.4194 380.029 77.2122 368.236 77.2122 353.689C77.2122 339.142 65.4194 327.349 50.8722 327.349C36.325 327.349 24.5322 339.142 24.5322 353.689C24.5322 368.236 36.325 380.029 50.8722 380.029Z" fill="#F2CB66"/>
<path d="M50.8725 383.549C34.4125 383.549 21.0225 370.159 21.0225 353.699C21.0225 337.239 34.4125 323.849 50.8725 323.849C67.3325 323.849 80.7225 337.239 80.7225 353.699C80.7225 370.159 67.3325 383.549 50.8725 383.549ZM50.8725 330.859C38.2825 330.859 28.0424 341.099 28.0424 353.689C28.0424 366.279 38.2825 376.519 50.8725 376.519C63.4625 376.519 73.7025 366.279 73.7025 353.689C73.7025 341.099 63.4625 330.859 50.8725 330.859Z" fill="black"/>
<path d="M80.3228 390.059C80.3228 377.599 79.1528 371.229 73.1528 363.959C65.4028 354.589 67.8728 345.039 79.6128 345.039C91.3528 345.039 106.873 352.569 115.663 368.889" fill="#FFEDE3"/>
<path d="M80.3228 393.569C78.3828 393.569 76.8128 391.999 76.8128 390.059C76.8128 377.369 75.4428 372.249 70.4428 366.199C65.4528 360.169 63.8928 353.569 66.2628 348.529C68.3528 344.079 73.2228 341.529 79.6028 341.529C92.1928 341.529 109.183 349.479 118.743 367.229C119.663 368.939 119.023 371.069 117.313 371.989C115.603 372.909 113.473 372.269 112.553 370.559C104.363 355.359 90.1028 348.549 79.5928 348.549C77.5028 348.549 73.8228 348.939 72.6128 351.519C71.4528 353.989 72.6928 357.899 75.8428 361.719C82.6328 369.919 83.8228 377.389 83.8228 390.049C83.8228 391.989 82.2528 393.559 80.3128 393.559L80.3228 393.569Z" fill="black"/>
<path d="M42.6627 411.689C31.4227 411.689 21.7827 404.649 18.1027 393.749C14.4027 382.779 17.6327 371.399 26.3427 364.769C27.8827 363.589 30.0927 363.889 31.2627 365.429C32.4427 366.969 32.1427 369.179 30.6027 370.349C24.3327 375.129 22.0427 383.429 24.7627 391.499C26.9127 397.859 32.7427 404.669 42.6627 404.669C48.4827 404.669 52.9927 402.289 56.0727 397.599C60.3127 391.139 60.4327 382.449 58.9027 378.919C58.1327 377.139 58.9427 375.069 60.7227 374.299C62.5027 373.519 64.5727 374.339 65.3427 376.119C67.9327 382.079 67.3727 393.189 61.9427 401.449C58.8827 406.119 53.0427 411.689 42.6627 411.689Z" fill="black"/>
<path d="M393.823 354.729C432.563 355.629 518.373 448.209 540.823 534.299V462.559C540.823 462.559 505.493 386.589 465.953 367.479C425.763 348.049 422.272 347.849 393.812 354.729H393.823Z" fill="#A6AAC5"/>
<path d="M110.133 364.219C109.003 364.219 107.903 363.679 107.223 362.679C86.1627 331.569 71.4027 317.649 59.4127 317.649C59.3127 317.649 59.2127 317.649 59.1127 317.649C52.8627 317.769 50.0527 323.609 50.0527 327.709C50.0527 329.649 48.4827 331.219 46.5427 331.219C44.6027 331.219 43.0327 329.649 43.0327 327.709C43.0327 319.469 49.0027 310.819 58.9827 310.619C73.8327 310.329 90.0327 324.719 113.053 358.729C114.143 360.339 113.723 362.519 112.113 363.609C111.513 364.019 110.823 364.209 110.143 364.209L110.133 364.219Z" fill="black"/>
<path d="M387.183 321.369C391.843 328.359 395.973 338.409 394.893 349.169L416.263 347.439C416.263 347.439 421.983 332.559 415.703 323.469C409.423 314.379 406.373 312.409 406.373 312.409L387.183 321.379V321.369Z" fill="#2B2A2D"/>
<path d="M61.1325 432.669C59.9225 432.669 58.7425 432.039 58.0925 430.919L45.4924 409.149C44.7824 407.929 44.8824 406.399 45.7324 405.269C46.5824 404.139 48.0325 403.639 49.4025 403.989C60.9225 406.959 80.0525 405.039 94.3125 395.659C104.372 389.039 110.382 379.849 112.182 368.359C112.392 367.029 113.342 365.929 114.632 365.539C115.922 365.149 117.322 365.539 118.232 366.529L135.632 385.499C136.942 386.929 136.852 389.149 135.422 390.459C133.992 391.769 131.772 391.679 130.462 390.249L117.572 376.199C114.392 386.549 107.772 395.219 98.1724 401.539C85.0224 410.189 68.1124 413.149 55.2724 412.059L64.1625 427.419C65.1325 429.099 64.5625 431.249 62.8825 432.219C62.3325 432.539 61.7225 432.689 61.1225 432.689L61.1325 432.669Z" fill="black"/>
<path d="M178.657 350.39C198.977 348.702 214.522 336.17 213.378 322.399C212.234 308.628 194.833 298.834 174.513 300.522C154.193 302.211 138.647 314.743 139.792 328.514C140.936 342.284 158.336 352.079 178.657 350.39Z" fill="#F4CFC3"/>
<path d="M375.083 311.048C395.028 306.808 408.867 292.414 405.994 278.898C403.121 265.382 384.624 257.862 364.679 262.101C344.734 266.34 330.895 280.734 333.768 294.25C336.641 307.767 355.138 315.287 375.083 311.048Z" fill="#F4CFC3"/>
<path d="M167.342 147.609C172.362 150.469 174.552 150.189 174.552 150.189C174.002 156.729 169.752 169.349 164.972 174.839C163.132 175.689 159.632 174.079 158.772 172.789L167.352 147.599L167.342 147.609Z" fill="#5E4A53"/>
<path d="M298.323 135.409C317.333 129.669 324.743 122.639 324.743 122.639L328.763 152.679C328.763 152.679 321.813 167.129 301.373 172.479C308.013 161.779 303.523 145.099 298.323 135.409Z" fill="#5E4A53"/>
<path d="M282.593 420.929L281.733 420.489C278.853 419.019 275.423 417.409 271.783 415.689C255.713 408.119 233.713 397.749 220.413 382.319L220.023 381.869L219.803 381.309C214.653 368.189 220.983 356.879 225.823 354.499C227.563 353.639 229.673 354.359 230.523 356.099C231.383 357.839 230.663 359.939 228.923 360.799C227.593 361.519 222.613 368.529 226.123 378.189C238.503 392.239 259.433 402.099 274.763 409.329C278.103 410.899 281.263 412.389 284.043 413.789L287.133 413.589C291.363 410.699 296.263 407.219 301.433 403.549C331.923 381.919 377.643 349.469 413.043 345.859C416.593 332.909 411.613 317.199 404.473 312.669C402.833 311.629 402.353 309.459 403.393 307.819C404.433 306.179 406.603 305.699 408.243 306.739C419.283 313.749 424.513 334.939 418.993 350.349L418.213 352.519L415.913 352.669C382.183 354.869 336.043 387.609 305.503 409.279C299.973 413.199 294.753 416.909 290.293 419.939L289.503 420.479L282.583 420.919L282.593 420.929Z" fill="black"/>
<path d="M369.073 145.789C390.133 164.979 400.453 196.109 405.183 223.539C410.103 252.669 410.193 282.379 409.883 311.789C386.813 324.609 361.743 333.179 336.433 340.289C290.723 352.729 243.693 360.199 196.403 362.569C181.503 362.879 166.363 364.709 151.943 359.339C144.523 356.599 137.593 351.699 133.333 344.849C126.923 334.539 126.173 320.569 132.633 310.149C138.913 299.959 149.913 293.889 161.143 290.779L158.703 295.219C151.893 275.549 147.523 254.889 146.383 234.079C144.943 209.719 148.043 185.039 155.823 161.899C159.333 152.069 163.943 142.599 170.353 134.299C167.133 147.319 162.813 160.649 159.753 173.659C152.033 206.409 153.343 240.749 160.533 273.479C162.203 281.219 164.283 288.979 166.363 296.649C158.733 298.509 150.953 301.519 145.023 306.539C138.393 311.869 134.363 320.079 135.283 328.609C135.663 333.009 136.913 337.429 139.283 341.119C144.443 349.489 154.583 353.879 164.233 355.289C174.743 356.739 185.483 355.829 196.093 355.569C210.473 354.879 224.843 353.679 239.153 351.969C289.033 345.719 338.973 335.539 385.443 315.989C392.003 313.149 398.453 310.069 404.683 306.649L402.873 309.719C402.153 274.319 402.663 238.499 394.253 203.929C390.793 189.349 385.023 175.509 378.013 162.289C375.193 156.889 371.973 151.149 369.073 145.799V145.789Z" fill="black"/>
<path d="M46.5427 362.229C47.3327 363.019 47.2827 364.359 46.4927 365.149C45.6627 365.979 44.3627 365.989 43.5727 365.199L34.7927 356.419C33.9827 355.609 34.0027 354.309 34.8227 353.479L38.7527 349.549C39.8827 348.419 41.1827 347.589 42.5327 347.419C44.0727 347.229 45.6727 347.889 46.8927 349.109C47.9027 350.119 48.5427 351.509 48.4627 353.209C48.4427 353.499 48.4127 353.769 48.3627 354.019L52.2927 354.919C52.6427 354.999 52.9527 355.169 53.2027 355.429C53.9927 356.219 54.0127 357.619 53.2027 358.439C52.6927 358.949 51.9827 359.179 51.2627 358.999L46.0927 357.719L44.0527 359.759L46.5327 362.239L46.5427 362.229ZM38.8227 354.519L41.5627 357.259L43.7727 355.049C44.1227 354.699 44.3927 354.259 44.5027 353.819C44.6027 353.279 44.4327 352.709 43.9127 352.179C43.4027 351.669 42.8827 351.489 42.3627 351.569C41.8927 351.639 41.4327 351.919 41.0827 352.279L38.8327 354.529L38.8227 354.519Z" fill="black"/>
<path d="M51.6928 343.739C53.1828 342.249 54.8628 341.379 56.5528 341.409C57.8528 341.429 59.1728 341.969 60.3828 343.179C61.5928 344.389 62.1228 345.589 62.2028 346.789C62.3228 348.529 61.4428 350.179 60.1628 351.469C59.8628 351.769 59.5528 352.079 59.2528 352.319L61.9228 354.989C62.6528 355.719 62.6028 356.949 61.8728 357.669C61.1328 358.409 59.9128 358.449 59.1928 357.719L50.4128 348.939C49.1928 347.719 49.3528 346.689 50.2128 345.459C50.5828 344.919 51.0928 344.339 51.7028 343.739H51.6928ZM57.0128 350.069C57.2028 349.949 57.4028 349.779 57.6528 349.529C58.1628 349.019 58.5328 348.519 58.6028 347.879C58.6728 347.269 58.3628 346.599 57.6728 345.899C57.1128 345.339 56.5428 345.039 55.9628 344.969C55.3228 344.899 54.7128 345.139 54.1928 345.659C53.9428 345.909 53.6528 346.229 53.4528 346.499L57.0128 350.059V350.069Z" fill="black"/>
<path d="M218.653 153.219C218.343 177.479 223.023 187.829 227.183 188.949C235.833 191.279 250.923 191.339 258.593 183.449C265.113 176.739 271.593 152.959 266.723 143.289C255.523 150.619 232.713 154.059 218.653 153.219Z" fill="#5E4A53"/>
<path d="M387.903 74.4093C387.903 74.4093 414.803 95.7493 426.103 119.429C426.103 119.429 403.683 143.819 378.933 137.719C354.183 131.619 341.453 114.939 341.453 114.939C362.413 106.549 380.373 93.0593 387.903 74.4093Z" fill="#5E4A53"/>
<path d="M186.933 152.039C191.403 153.809 196.923 154.499 203.973 154.239C203.973 154.239 203.583 175.069 209.623 187.119C209.623 187.119 195.173 187.369 187.753 183.889C185.893 180.689 183.883 159.829 186.923 152.039H186.933Z" fill="#5E4A53"/>
<path d="M488.303 380.029H481.283C481.283 331.879 476.713 239.769 446.073 163.759C414.473 85.3792 364.133 45.6293 296.433 45.6293C228.733 45.6293 180.033 64.8093 147.393 102.629C103.883 153.039 90.4728 237.119 107.533 352.529L100.583 353.559C83.2128 236.039 97.1628 150.069 142.073 98.0392C176.103 58.5992 228.043 38.6093 296.433 38.6093C334.053 38.6093 366.953 50.5293 394.213 74.0293C417.863 94.4193 437.503 123.729 452.583 161.139C483.663 238.239 488.303 331.379 488.303 380.029Z" fill="black"/>
<path d="M315.533 107.049C327.363 120.099 335.763 135.779 347.833 148.509C355.383 156.719 363.843 164.119 373.533 169.629C378.563 172.429 383.883 174.699 389.423 176.269C393.633 177.579 392.213 183.769 387.843 183.109C369.343 179.769 353.713 167.879 341.723 153.949C330.133 140.099 319.733 124.789 315.533 107.039V107.049Z" fill="black"/>
<path d="M187.033 128.929C188.893 138.899 188.323 148.919 188.553 158.939C188.693 163.869 188.963 168.789 189.463 173.669C191.803 196.679 198.153 222.889 218.643 236.249L213.583 240.509C211.243 234.119 209.223 227.609 208.513 220.779C207.863 216.399 209.073 208.239 209.463 203.739C215.543 212.949 220.863 222.789 231.553 227.309C233.823 228.309 236.233 228.949 238.713 229.369L235.203 234.749C231.403 228.759 228.403 222.549 225.593 216.119C220.133 203.319 215.873 190.029 213.883 176.189C212.923 169.239 212.543 162.119 213.383 154.949L216.553 128.019L220.353 154.889C222.083 167.299 225.843 179.659 233.443 189.669C240.963 199.709 251.853 206.589 263.483 211.179L258.963 213.059C267.833 193.719 277.223 178.689 275.903 156.419L275.143 141.789L282.453 154.449C284.993 158.849 286.523 163.659 287.353 168.469C289.623 182.649 286.963 196.969 282.903 210.509L278.353 206.179C284.783 203.629 291.033 199.829 296.613 195.709C301.873 191.709 307.383 186.779 309.863 180.759L313.083 172.559L316.353 180.659C318.363 186.259 317.543 191.879 316.563 197.449C316.563 197.449 310.523 194.379 310.533 194.379C320.973 181.189 326.973 164.249 326.193 147.359C326.033 143.959 325.653 140.559 325.103 137.149C324.023 130.319 322.143 123.539 320.113 116.499C327.273 124.899 331.773 135.749 333.013 146.799C335.283 165.599 328.943 185.489 315.713 199.119L307.163 208.579L309.673 196.049C310.433 192.009 311.073 187.289 309.883 183.429L316.383 183.329C314.763 187.399 312.243 190.689 309.553 193.589C304.173 199.289 297.883 203.739 291.203 207.649C287.763 209.609 284.493 211.359 280.703 212.789L274.083 215.229L276.153 208.459C280.773 192.899 284.563 172.789 276.363 157.979L282.903 156.009C283.543 166.699 281.753 177.559 278.123 187.579C274.703 197.369 269.503 206.509 265.413 215.819L264.053 218.949C250.203 213.829 236.813 205.959 227.823 193.879C219.453 182.869 215.253 169.299 213.383 155.839L220.353 155.769C218.393 175.429 224.513 195.289 232.043 213.319C234.663 219.339 237.603 225.419 241.103 230.909L245.393 237.599C240.313 236.619 233.493 236.009 228.783 233.749C220.383 230.179 213.833 223.369 209.013 215.819L215.463 214.289C214.533 225.379 220.003 237.109 223.583 247.479L215.103 242.309C210.333 239.779 206.013 236.379 202.313 232.449C191.413 220.739 186.003 205.099 183.393 189.629C181.723 179.469 181.123 169.189 181.393 158.939C181.633 148.719 182.423 138.249 187.043 128.919L187.033 128.929Z" fill="black"/>
<path d="M146.853 231.469C155.043 218.189 161.493 203.739 166.803 189.069C173.813 169.769 178.793 149.899 186.493 130.729C186.243 140.029 185.093 149.189 183.493 158.279C180.573 174.199 176.093 189.959 169.983 204.979C165.463 215.799 159.873 226.229 152.593 235.509C151.393 237.039 149.183 237.299 147.653 236.099C146.223 234.979 145.903 232.969 146.843 231.469H146.853Z" fill="black"/>
<path d="M168.043 413.499C157.643 388.989 141.063 385.399 135.083 388.989L120.553 408.769C124.283 412.469 136.763 417.619 139.863 423.099C144.323 430.959 155.533 431.249 160.363 423.609C163.353 418.889 166.203 415.239 168.033 413.509L168.043 413.499Z" fill="#A6AAC5"/>
<path d="M126.793 535.969C119.733 522.879 97.6526 499.659 64.6426 470.579L64.0426 470.049C48.7526 456.579 49.2127 437.499 58.4727 426.849C59.1927 426.029 60.2426 425.589 61.3326 425.649C105.333 428.279 124.993 402.499 129.673 386.849C129.923 386.009 130.483 385.289 131.233 384.839C134.903 382.649 139.153 382.189 143.863 383.469C156.353 386.859 169.323 402.079 173.183 409.089L167.033 412.479C163.643 406.319 151.743 392.879 142.033 390.249C139.693 389.619 137.683 389.639 135.933 390.339C129.993 407.829 108.553 434.769 62.7426 432.759C56.7726 441.029 57.2927 454.739 68.6827 464.779L69.2827 465.309C103.393 495.349 125.413 518.629 132.973 532.629L126.793 535.969Z" fill="black"/>
<path d="M540.823 466.079C539.413 466.079 538.083 465.229 537.543 463.829C529.173 442.149 511.223 415.839 490.693 395.159C473.173 377.509 445.883 355.819 415.333 352.659C413.403 352.459 412.003 350.739 412.203 348.809C412.403 346.879 414.133 345.479 416.053 345.679C448.663 349.049 477.353 371.759 495.673 390.209C516.843 411.529 535.393 438.769 544.083 461.299C544.783 463.109 543.883 465.139 542.073 465.839C541.653 465.999 541.233 466.079 540.813 466.079H540.823Z" fill="black"/>
<path d="M157.083 437.869C156.633 437.869 156.173 437.779 155.733 437.599C153.943 436.849 153.093 434.799 153.843 433.009C167.863 399.429 188.393 382.549 222.473 376.579C224.383 376.249 226.203 377.519 226.543 379.429C226.883 381.339 225.603 383.159 223.693 383.499C192.263 389.009 173.313 404.629 160.323 435.719C159.763 437.069 158.453 437.879 157.083 437.879V437.869Z" fill="black"/>
<path d="M170.153 240.969C168.533 240.969 167.073 239.839 166.723 238.189C166.323 236.289 167.533 234.429 169.433 234.019L231.273 220.879C233.173 220.479 235.033 221.689 235.443 223.589C235.843 225.489 234.633 227.349 232.733 227.759L170.893 240.899C170.643 240.949 170.403 240.979 170.163 240.979L170.153 240.969Z" fill="black"/>
<path d="M292.723 214.919C291.103 214.919 289.643 213.789 289.293 212.139C288.893 210.239 290.103 208.379 292.003 207.969L353.843 194.829C355.743 194.429 357.603 195.639 358.013 197.539C358.413 199.439 357.203 201.299 355.303 201.709L293.463 214.849C293.213 214.899 292.973 214.929 292.733 214.929L292.723 214.919Z" fill="black"/>
<path d="M357.993 244.329C352.663 214.519 303.443 217.089 305.083 248.429C304.363 280.569 365.193 276.269 357.993 244.329Z" fill="#652C25"/>
<path d="M331.203 274.049C325.523 274.049 319.863 272.859 314.993 270.419C306.153 265.989 301.393 258.199 301.563 248.469C300.713 230.979 313.693 221.609 326.963 220.089C341.683 218.399 358.233 225.939 361.433 243.629C363.513 252.989 360.633 261.289 353.303 267.029C347.413 271.639 339.293 274.049 331.203 274.049ZM331.003 226.889C329.913 226.889 328.833 226.949 327.763 227.069C318.463 228.139 307.853 234.319 308.583 248.239V248.369V248.499C308.383 257.369 313.673 261.899 318.133 264.139C327.513 268.839 341.053 267.679 348.963 261.499C352.563 258.679 356.463 253.549 354.553 245.099L354.523 244.949C352.343 232.729 341.553 226.889 330.993 226.889H331.003Z" fill="black"/>
<path d="M229.463 248.129C228.063 247.379 226.183 246.439 224.693 245.949C223.903 245.689 217.653 244.569 215.203 245.129C214.323 245.329 213.333 245.399 212.433 245.559C207.563 246.439 202.843 248.579 198.993 251.669C191.133 257.979 187.243 268.399 190.993 278.129C195.163 288.969 207.033 292.269 217.713 291.069C224.933 290.259 232.613 286.939 236.993 280.969C239.403 277.679 240.623 274.119 240.813 270.029C241.213 261.649 237.043 252.159 229.473 248.109L229.463 248.129Z" fill="#652C25"/>
<path d="M213.593 294.829C203.273 294.829 192.113 290.839 187.713 279.399C183.643 268.809 187.293 256.569 196.793 248.939C201.113 245.479 206.303 243.119 211.803 242.109C212.243 242.029 212.693 241.969 213.143 241.909C213.613 241.849 214.063 241.789 214.403 241.709C217.913 240.899 225.023 242.359 225.783 242.609C227.183 243.069 228.973 243.879 231.113 245.029C239.373 249.449 244.793 259.809 244.303 270.209C244.073 275.039 242.603 279.239 239.803 283.059C235.253 289.259 227.133 293.559 218.083 294.569C216.613 294.729 215.103 294.819 213.573 294.819L213.593 294.829ZM216.993 248.489C216.573 248.489 216.233 248.509 215.993 248.569C215.313 248.729 214.643 248.809 214.053 248.889C213.713 248.929 213.383 248.979 213.063 249.029C208.773 249.809 204.553 251.729 201.193 254.419C194.083 260.129 191.303 269.159 194.273 276.879C197.883 286.269 208.553 288.569 217.323 287.589C224.463 286.789 230.753 283.549 234.153 278.899C236.133 276.199 237.133 273.329 237.303 269.879C237.613 263.299 234.453 254.779 227.813 251.219C225.633 250.049 224.353 249.529 223.653 249.299C222.533 248.999 218.963 248.479 217.003 248.479L216.993 248.489Z" fill="black"/>
<path d="M187.363 111.769C205.773 78.8292 223.593 73.5692 234.893 80.0292C234.893 80.0292 207.453 89.7092 187.363 111.769Z" fill="black"/>
<path d="M325.263 89.4493C301.513 61.5593 279.883 62.0893 271.363 71.9393C271.363 71.9393 302.573 71.5693 325.263 89.4493Z" fill="black"/>
<path d="M409.923 453.779C420.923 468.399 426.003 512.879 426.123 531.839C426.023 536.289 419.603 536.599 419.103 532.149C418.053 519.189 416.663 506.119 414.963 493.199C413.653 483.559 412.223 473.839 410.273 464.319C409.563 461.169 408.843 457.979 407.623 455.179C407.013 453.769 408.933 452.579 409.913 453.779H409.923Z" fill="black"/>
<path d="M296.633 144.749C307.503 138.229 324.053 136.159 336.263 139.499C337.653 139.929 339.013 140.419 340.323 141.079C341.033 141.429 341.333 142.289 340.993 142.999C340.763 143.479 340.293 143.769 339.793 143.809C339.793 143.809 318.633 145.179 318.613 145.189C311.473 145.659 304.533 146.309 297.323 146.839C296.173 146.949 295.643 145.349 296.633 144.759V144.749Z" fill="black"/>
<path d="M172.493 186.339C177.343 180.619 183.672 176.519 190.232 173.089C196.852 169.759 203.823 167.109 211.313 166.549C212.783 166.449 213.423 168.439 212.183 169.209C206.123 173.169 199.792 176.269 193.322 179.349C186.832 182.399 180.482 185.339 173.802 188.089C172.742 188.549 171.743 187.199 172.503 186.329L172.493 186.339Z" fill="black"/>
</g>
<defs>
<clipPath id="clip0_267_3438">
<rect width="541.522" height="542.512" fill="white"/>
</clipPath>
</defs>
</svg>
